<svg xmlns="http://www.w3.org/2000/svg" xml:space="preserve" width="512" height="512" fill="none"><path stroke="#121212" stroke-linecap="round" stroke-linejoin="round" stroke-width="44" d="M239 45c6-3 9-5 13-5h8c4 0 7 2 13 5l163 91c6 4 10 5 12 8l5 8 1 15v178l-1 15-5 8c-2 3-6 4-12 8l-163 91c-6 3-9 5-13 5h-8c-4 0-7-2-13-5L76 376c-6-4-10-5-12-8l-5-8-1-15V167l1-15 5-8c2-3 6-4 12-8z"/><path stroke="#121212" stroke-linecap="round" stroke-linejoin="round" stroke-width="44" d="m183 152 41 48m0 0 14 17 35 45m0 0a1089 1089 0 0 0 29 41l28 42 8 14 3 6m-3-211a189 189 0 0 1-13 71c-6 11-14 22-24 30l-20 15m-52-59c-6 5-17 11-26 22-6 8-11 17-15 26-9 21-11 51-14 74l-4 25-1 7"/></svg>