<svg xmlns="http://www.w3.org/2000/svg" version="1.1" xmlns:xlink="http://www.w3.org/1999/xlink" width="512" height="512"><svg xmlns="http://www.w3.org/2000/svg" xml:space="preserve" width="512" height="512" fill="none"><path stroke="#000" stroke-linecap="round" stroke-linejoin="round" stroke-width="44" d="M239 45c6-3 9-5 13-5h8c4 0 7 2 13 5l163 91c6 4 10 5 12 8l5 8 1 15v178l-1 15-5 8c-2 3-6 4-12 8l-163 91c-6 3-9 5-13 5h-8c-4 0-7-2-13-5L76 376c-6-4-10-5-12-8l-5-8-1-15V167l1-15 5-8c2-3 6-4 12-8z"></path><path fill="#000" stroke="#000" stroke-linecap="round" stroke-linejoin="round" stroke-width="44" d="m157.5 90.5 197 331"></path><path stroke="#000" stroke-linecap="round" stroke-linejoin="round" stroke-width="44" d="M354.5 90.5c0 139.69631.69456 145.15423-67.92722 198.2724M157.5 421.5c.0285-139.69631-.66493-145.15437 67.96769-198.25853"></path></svg><style>@media (prefers-color-scheme: light) { :root { filter: none; } }
@media (prefers-color-scheme: dark) { :root { filter: invert(100%); } }
</style></svg>